<svg width="250" height="170" viewBox="0 0 250 170" fill="none" xmlns="http://www.w3.org/2000/svg">
<g opacity="0.5">
<path d="M211.091 66.6267L203.775 59.3127L167.201 95.8869L148.915 77.6004L141.601 84.9132L167.201 110.517L211.091 66.6267Z" fill="#5EAC24"/>
<path d="M174.96 20V30.3455H226.684V91.0152C226.769 116.508 212.353 139.833 189.512 151.157L174.96 158.435V170L194.139 160.411C220.424 147.269 237.029 120.402 237.029 91.0152V20H174.96Z" fill="#5EAC24"/>
<path d="M160.406 151.157C137.565 139.833 123.149 116.509 123.236 91.0152V30.3455H174.96V20H112.891V91.0152C112.891 120.402 129.495 147.269 155.781 160.411L174.96 170V158.435L160.406 151.157Z" fill="#4E901E"/>
<path d="M123.236 91.0152C123.149 116.508 137.565 139.833 160.408 151.157L174.96 158.435V102.759L167.201 110.517L141.598 84.9143L148.911 77.6004L167.201 95.8869L174.96 88.129V30.3455H123.236V91.0152Z" fill="#B6EB92"/>
<path d="M203.775 59.3105L211.091 66.6244L174.96 102.759V158.435L189.512 151.157C212.353 139.835 226.77 116.509 226.684 91.0152V30.3455H174.96V88.129L203.775 59.3105Z" fill="#C9EEAE"/>
</g>
<g opacity="0.5">
<path d="M111.091 66.6267L103.775 59.3127L67.201 95.8869L48.9145 77.6004L41.6006 84.9132L67.201 110.517L111.091 66.6267Z" fill="#5EAC24"/>
<path d="M74.9597 20V30.3455H126.684V91.0152C126.769 116.508 112.353 139.833 89.5121 151.157L74.9597 158.435V170L94.1389 160.411C120.424 147.269 137.029 120.402 137.029 91.0152V20H74.9597Z" fill="#5EAC24"/>
<path d="M60.4065 151.157C37.5652 139.833 23.1491 116.509 23.2361 91.0152V30.3455H74.9599V20H12.8906V91.0152C12.8906 120.402 29.4949 147.269 55.7808 160.411L74.9599 170V158.435L60.4065 151.157Z" fill="#4E901E"/>
<path d="M23.236 91.0152C23.1491 116.508 37.5652 139.833 60.4076 151.157L74.9599 158.435V102.759L67.2008 110.517L41.5981 84.9143L48.9109 77.6004L67.2008 95.8869L74.9599 88.129V30.3455H23.236V91.0152Z" fill="#B6EB92"/>
<path d="M103.775 59.3105L111.091 66.6244L74.9597 102.759V158.435L89.5121 151.157C112.353 139.835 126.77 116.509 126.684 91.0152V30.3455H74.9597V88.129L103.775 59.3105Z" fill="#C9EEAE"/>
</g>
<path d="M161.091 46.6267L153.775 39.3127L117.201 75.8869L98.9145 57.6004L91.6006 64.9132L117.201 90.517L161.091 46.6267Z" fill="#5EAC24"/>
<path d="M124.96 0V10.3455H176.684V71.0152C176.769 96.508 162.353 119.833 139.512 131.157L124.96 138.435V150L144.139 140.411C170.424 127.269 187.029 100.402 187.029 71.0152V0H124.96Z" fill="#5EAC24"/>
<path d="M110.406 131.157C87.5652 119.833 73.1491 96.5092 73.2361 71.0152V10.3455H124.96V0H62.8906V71.0152C62.8906 100.402 79.4949 127.269 105.781 140.411L124.96 150V138.435L110.406 131.157Z" fill="#4E901E"/>
<path d="M73.236 71.0152C73.1491 96.508 87.5652 119.833 110.408 131.157L124.96 138.435V82.7591L117.201 90.517L91.5981 64.9143L98.9109 57.6004L117.201 75.8869L124.96 68.129V10.3455H73.236V71.0152Z" fill="#B6EB92"/>
<path d="M153.775 39.3105L161.091 46.6244L124.96 82.7591V138.435L139.512 131.157C162.353 119.835 176.77 96.5092 176.684 71.0152V10.3455H124.96V68.129L153.775 39.3105Z" fill="#C9EEAE"/>
</svg>
